<mxfile host="app.diagrams.net" modified="2024-04-06T16:03:50.410Z" agent="Mozilla/5.0 (Windows NT 10.0; Win64; x64) AppleWebKit/537.36 (KHTML, like Gecko) Chrome/123.0.0.0 Safari/537.36" etag="9j95cc0Au9deIviQCTlx" version="24.2.1" type="github">
  <diagram id="wFE0QG_FPsp0jaGvCLVb" name="Page-1">
    <mxGraphModel dx="1191" dy="617" grid="1" gridSize="10" guides="1" tooltips="1" connect="1" arrows="1" fold="1" page="1" pageScale="1" pageWidth="850" pageHeight="1100" math="0" shadow="0">
      <root>
        <mxCell id="0" />
        <mxCell id="1" parent="0" />
        <mxCell id="HKSDCgoj5RYc5h3AGMSB-9" value="&lt;div style=&quot;&quot;&gt;&lt;br&gt;&lt;/div&gt;" style="shape=folder;fontStyle=1;spacingTop=10;tabWidth=40;tabHeight=14;tabPosition=left;html=1;whiteSpace=wrap;" vertex="1" parent="1">
          <mxGeometry x="210" y="30" width="410" height="240" as="geometry" />
        </mxCell>
        <mxCell id="HKSDCgoj5RYc5h3AGMSB-10" value="&lt;span id=&quot;selected_text&quot;&gt;&lt;/span&gt;&amp;lt;&amp;lt;layer&amp;gt;&amp;gt;&lt;div&gt;Data Access Layer&lt;/div&gt;" style="shape=folder;fontStyle=1;spacingTop=10;tabWidth=40;tabHeight=14;tabPosition=left;html=1;whiteSpace=wrap;" vertex="1" parent="1">
          <mxGeometry x="230" y="70" width="120" height="70" as="geometry" />
        </mxCell>
        <mxCell id="HKSDCgoj5RYc5h3AGMSB-11" value="&lt;span id=&quot;selected_text&quot;&gt;&lt;/span&gt;Server side" style="text;html=1;align=center;verticalAlign=middle;resizable=0;points=[];autosize=1;strokeColor=none;fillColor=none;fontStyle=1" vertex="1" parent="1">
          <mxGeometry x="375" y="40" width="80" height="30" as="geometry" />
        </mxCell>
        <mxCell id="HKSDCgoj5RYc5h3AGMSB-13" value="&amp;lt;&amp;lt;layer&amp;gt;&amp;gt;&lt;div&gt;Business Logic Layer&lt;/div&gt;" style="shape=folder;fontStyle=1;spacingTop=10;tabWidth=40;tabHeight=14;tabPosition=left;html=1;whiteSpace=wrap;" vertex="1" parent="1">
          <mxGeometry x="460" y="70" width="120" height="70" as="geometry" />
        </mxCell>
        <mxCell id="HKSDCgoj5RYc5h3AGMSB-14" value="&amp;lt;&amp;lt;layer&amp;gt;&amp;gt;&lt;br&gt;Communication Layer (Controllers)" style="shape=folder;fontStyle=1;spacingTop=10;tabWidth=40;tabHeight=14;tabPosition=left;html=1;whiteSpace=wrap;" vertex="1" parent="1">
          <mxGeometry x="330" y="180" width="155" height="70" as="geometry" />
        </mxCell>
        <mxCell id="HKSDCgoj5RYc5h3AGMSB-15" style="edgeStyle=orthogonalEdgeStyle;rounded=0;orthogonalLoop=1;jettySize=auto;html=1;exitX=0;exitY=0;exitDx=97.5;exitDy=14;exitPerimeter=0;entryX=0.5;entryY=1;entryDx=0;entryDy=0;entryPerimeter=0;" edge="1" parent="1" source="HKSDCgoj5RYc5h3AGMSB-14" target="HKSDCgoj5RYc5h3AGMSB-13">
          <mxGeometry relative="1" as="geometry" />
        </mxCell>
        <mxCell id="HKSDCgoj5RYc5h3AGMSB-18" style="edgeStyle=orthogonalEdgeStyle;rounded=0;orthogonalLoop=1;jettySize=auto;html=1;exitX=0.5;exitY=1;exitDx=0;exitDy=0;exitPerimeter=0;entryX=0;entryY=0;entryDx=97.5;entryDy=14;entryPerimeter=0;" edge="1" parent="1" source="HKSDCgoj5RYc5h3AGMSB-13" target="HKSDCgoj5RYc5h3AGMSB-14">
          <mxGeometry relative="1" as="geometry" />
        </mxCell>
        <mxCell id="HKSDCgoj5RYc5h3AGMSB-19" style="edgeStyle=orthogonalEdgeStyle;rounded=0;orthogonalLoop=1;jettySize=auto;html=1;exitX=0;exitY=0;exitDx=120;exitDy=42;exitPerimeter=0;entryX=0;entryY=0;entryDx=0;entryDy=42;entryPerimeter=0;" edge="1" parent="1" source="HKSDCgoj5RYc5h3AGMSB-10" target="HKSDCgoj5RYc5h3AGMSB-13">
          <mxGeometry relative="1" as="geometry" />
        </mxCell>
        <mxCell id="HKSDCgoj5RYc5h3AGMSB-20" style="edgeStyle=orthogonalEdgeStyle;rounded=0;orthogonalLoop=1;jettySize=auto;html=1;exitX=0;exitY=0;exitDx=0;exitDy=42;exitPerimeter=0;entryX=0;entryY=0;entryDx=120;entryDy=42;entryPerimeter=0;" edge="1" parent="1" source="HKSDCgoj5RYc5h3AGMSB-13" target="HKSDCgoj5RYc5h3AGMSB-10">
          <mxGeometry relative="1" as="geometry" />
        </mxCell>
        <mxCell id="HKSDCgoj5RYc5h3AGMSB-21" value="&lt;div style=&quot;&quot;&gt;&lt;br&gt;&lt;/div&gt;" style="shape=folder;fontStyle=1;spacingTop=10;tabWidth=40;tabHeight=14;tabPosition=left;html=1;whiteSpace=wrap;" vertex="1" parent="1">
          <mxGeometry x="210" y="350" width="410" height="240" as="geometry" />
        </mxCell>
        <mxCell id="HKSDCgoj5RYc5h3AGMSB-23" value="Client &lt;span id=&quot;selected_text&quot;&gt;&lt;/span&gt;side" style="text;html=1;align=center;verticalAlign=middle;resizable=0;points=[];autosize=1;strokeColor=none;fillColor=none;fontStyle=1" vertex="1" parent="1">
          <mxGeometry x="375" y="360" width="80" height="30" as="geometry" />
        </mxCell>
        <mxCell id="HKSDCgoj5RYc5h3AGMSB-25" value="&lt;span id=&quot;selected_text&quot;&gt;&lt;/span&gt;&amp;lt;&amp;lt;layer&amp;gt;&amp;gt;&lt;br&gt;Communication Layer (HTTP Client)" style="shape=folder;fontStyle=1;spacingTop=10;tabWidth=40;tabHeight=14;tabPosition=left;html=1;whiteSpace=wrap;" vertex="1" parent="1">
          <mxGeometry x="337.5" y="380" width="155" height="70" as="geometry" />
        </mxCell>
        <mxCell id="HKSDCgoj5RYc5h3AGMSB-31" style="edgeStyle=orthogonalEdgeStyle;rounded=0;orthogonalLoop=1;jettySize=auto;html=1;exitX=0;exitY=0;exitDx=20;exitDy=0;exitPerimeter=0;entryX=0.5;entryY=1;entryDx=0;entryDy=0;entryPerimeter=0;" edge="1" parent="1" source="HKSDCgoj5RYc5h3AGMSB-25" target="HKSDCgoj5RYc5h3AGMSB-14">
          <mxGeometry relative="1" as="geometry" />
        </mxCell>
        <mxCell id="HKSDCgoj5RYc5h3AGMSB-32" value="&lt;b&gt;REST APIs&lt;/b&gt;" style="text;html=1;align=center;verticalAlign=middle;resizable=0;points=[];autosize=1;strokeColor=none;fillColor=none;" vertex="1" parent="1">
          <mxGeometry x="320" y="280" width="90" height="30" as="geometry" />
        </mxCell>
        <mxCell id="HKSDCgoj5RYc5h3AGMSB-33" style="edgeStyle=orthogonalEdgeStyle;rounded=0;orthogonalLoop=1;jettySize=auto;html=1;exitX=0.5;exitY=1;exitDx=0;exitDy=0;exitPerimeter=0;entryX=0;entryY=0;entryDx=20;entryDy=0;entryPerimeter=0;" edge="1" parent="1" source="HKSDCgoj5RYc5h3AGMSB-14" target="HKSDCgoj5RYc5h3AGMSB-25">
          <mxGeometry relative="1" as="geometry" />
        </mxCell>
        <mxCell id="HKSDCgoj5RYc5h3AGMSB-35" value="&lt;span id=&quot;selected_text&quot;&gt;&lt;/span&gt;&amp;lt;&amp;lt;layer&amp;gt;&amp;gt;&lt;br&gt;Presentation Layer" style="shape=folder;fontStyle=1;spacingTop=10;tabWidth=40;tabHeight=14;tabPosition=left;html=1;whiteSpace=wrap;" vertex="1" parent="1">
          <mxGeometry x="337.5" y="500" width="155" height="70" as="geometry" />
        </mxCell>
        <mxCell id="HKSDCgoj5RYc5h3AGMSB-38" style="edgeStyle=orthogonalEdgeStyle;rounded=0;orthogonalLoop=1;jettySize=auto;html=1;exitX=0.5;exitY=1;exitDx=0;exitDy=0;exitPerimeter=0;entryX=0;entryY=0;entryDx=20;entryDy=0;entryPerimeter=0;" edge="1" parent="1" source="HKSDCgoj5RYc5h3AGMSB-25" target="HKSDCgoj5RYc5h3AGMSB-35">
          <mxGeometry relative="1" as="geometry">
            <Array as="points">
              <mxPoint x="415" y="470" />
              <mxPoint x="358" y="470" />
            </Array>
          </mxGeometry>
        </mxCell>
        <mxCell id="HKSDCgoj5RYc5h3AGMSB-39" style="edgeStyle=orthogonalEdgeStyle;rounded=0;orthogonalLoop=1;jettySize=auto;html=1;exitX=0;exitY=0;exitDx=20;exitDy=0;exitPerimeter=0;entryX=0.5;entryY=1;entryDx=0;entryDy=0;entryPerimeter=0;" edge="1" parent="1" source="HKSDCgoj5RYc5h3AGMSB-35" target="HKSDCgoj5RYc5h3AGMSB-25">
          <mxGeometry relative="1" as="geometry">
            <Array as="points">
              <mxPoint x="358" y="470" />
              <mxPoint x="415" y="470" />
            </Array>
          </mxGeometry>
        </mxCell>
      </root>
    </mxGraphModel>
  </diagram>
</mxfile>
